<?xml version="1.0" encoding="us-ascii" standalone="no"?><svg xmlns="http://www.w3.org/2000/svg" xmlns:xlink="http://www.w3.org/1999/xlink" contentStyleType="text/css" height="1009px" preserveAspectRatio="none" style="width:1968px;height:1009px;background:#FFFFFF;" version="1.1" viewBox="0 0 1968 1009" width="1968px" zoomAndPan="magnify"><defs/><g><rect fill="#FFFFFF" height="798.4531" style="stroke:#181818;stroke-width:1.0;" width="10" x="310" y="112.4297"/><rect fill="#FFFFFF" height="29.1328" style="stroke:#181818;stroke-width:1.0;" width="10" x="737" y="199.8281"/><rect fill="#FFFFFF" height="29.1328" style="stroke:#181818;stroke-width:1.0;" width="10" x="737" y="374.625"/><rect fill="#FFFFFF" height="29.1328" style="stroke:#181818;stroke-width:1.0;" width="10" x="737" y="462.0234"/><rect fill="#FFFFFF" height="29.1328" style="stroke:#181818;stroke-width:1.0;" width="10" x="866.5" y="141.5625"/><rect fill="#FFFFFF" height="58.2656" style="stroke:#181818;stroke-width:1.0;" width="10" x="1147" y="287.2266"/><rect fill="#FFFFFF" height="29.1328" style="stroke:#181818;stroke-width:1.0;" width="10" x="1307.5" y="520.2891"/><rect fill="#FFFFFF" height="29.1328" style="stroke:#181818;stroke-width:1.0;" width="10" x="1465" y="578.5547"/><rect fill="#FFFFFF" height="29.1328" style="stroke:#181818;stroke-width:1.0;" width="10" x="1465" y="810.4844"/><rect fill="#FFFFFF" height="86.2656" style="stroke:#181818;stroke-width:1.0;" width="10" x="1622.5" y="695.0859"/><rect fill="#FFFFFF" height="29.1328" style="stroke:#181818;stroke-width:1.0;" width="10" x="1889" y="636.8203"/><rect fill="#FFFFFF" height="43.1328" style="stroke:#181818;stroke-width:1.0;" width="10" x="1889" y="724.2188"/><line style="stroke:#181818;stroke-width:0.5;stroke-dasharray:5.0,5.0;" x1="106" x2="106" y1="81.2969" y2="928.8828"/><line style="stroke:#181818;stroke-width:0.5;stroke-dasharray:5.0,5.0;" x1="314.5" x2="314.5" y1="81.2969" y2="928.8828"/><line style="stroke:#181818;stroke-width:0.5;stroke-dasharray:5.0,5.0;" x1="742" x2="742" y1="81.2969" y2="928.8828"/><line style="stroke:#181818;stroke-width:0.5;stroke-dasharray:5.0,5.0;" x1="871" x2="871" y1="81.2969" y2="928.8828"/><line style="stroke:#181818;stroke-width:0.5;stroke-dasharray:5.0,5.0;" x1="995" x2="995" y1="81.2969" y2="928.8828"/><line style="stroke:#181818;stroke-width:0.5;stroke-dasharray:5.0,5.0;" x1="1152" x2="1152" y1="81.2969" y2="928.8828"/><line style="stroke:#181818;stroke-width:0.5;stroke-dasharray:5.0,5.0;" x1="1312" x2="1312" y1="81.2969" y2="928.8828"/><line style="stroke:#181818;stroke-width:0.5;stroke-dasharray:5.0,5.0;" x1="1470" x2="1470" y1="81.2969" y2="928.8828"/><line style="stroke:#181818;stroke-width:0.5;stroke-dasharray:5.0,5.0;" x1="1627" x2="1627" y1="81.2969" y2="928.8828"/><line style="stroke:#181818;stroke-width:0.5;stroke-dasharray:5.0,5.0;" x1="1894" x2="1894" y1="81.2969" y2="928.8828"/><text fill="#000000" font-family="sans-serif" font-size="14" lengthAdjust="spacing" textLength="196" x="5" y="77.9951">Caller (e.g. EditorViewModel)</text><ellipse cx="106" cy="13.5" fill="#E2E2F0" rx="8" ry="8" style="stroke:#181818;stroke-width:0.5;"/><path d="M106,21.5 L106,48.5 M93,29.5 L119,29.5 M106,48.5 L93,63.5 M106,48.5 L119,63.5 " fill="none" style="stroke:#181818;stroke-width:0.5;"/><text fill="#000000" font-family="sans-serif" font-size="14" lengthAdjust="spacing" textLength="196" x="5" y="940.8779">Caller (e.g. EditorViewModel)</text><ellipse cx="106" cy="952.6797" fill="#E2E2F0" rx="8" ry="8" style="stroke:#181818;stroke-width:0.5;"/><path d="M106,960.6797 L106,987.6797 M93,968.6797 L119,968.6797 M106,987.6797 L93,1002.6797 M106,987.6797 L119,1002.6797 " fill="none" style="stroke:#181818;stroke-width:0.5;"/><rect fill="#E2E2F0" height="30.2969" rx="2.5" ry="2.5" style="stroke:#181818;stroke-width:0.5;" width="175" x="227.5" y="50"/><text fill="#000000" font-family="sans-serif" font-size="14" lengthAdjust="spacing" textLength="161" x="234.5" y="69.9951">CodeFormattingService</text><rect fill="#E2E2F0" height="30.2969" rx="2.5" ry="2.5" style="stroke:#181818;stroke-width:0.5;" width="175" x="227.5" y="927.8828"/><text fill="#000000" font-family="sans-serif" font-size="14" lengthAdjust="spacing" textLength="161" x="234.5" y="947.8779">CodeFormattingService</text><rect fill="#E2E2F0" height="30.2969" rx="2.5" ry="2.5" style="stroke:#181818;stroke-width:0.5;" width="136" x="674" y="50"/><text fill="#000000" font-family="sans-serif" font-size="14" lengthAdjust="spacing" textLength="122" x="681" y="69.9951">DynamicGrammar</text><rect fill="#E2E2F0" height="30.2969" rx="2.5" ry="2.5" style="stroke:#181818;stroke-width:0.5;" width="136" x="674" y="927.8828"/><text fill="#000000" font-family="sans-serif" font-size="14" lengthAdjust="spacing" textLength="122" x="681" y="947.8779">DynamicGrammar</text><rect fill="#E2E2F0" height="30.2969" rx="2.5" ry="2.5" style="stroke:#181818;stroke-width:0.5;" width="103" x="820" y="50"/><text fill="#000000" font-family="sans-serif" font-size="14" lengthAdjust="spacing" textLength="89" x="827" y="69.9951">CharStreams</text><rect fill="#E2E2F0" height="30.2969" rx="2.5" ry="2.5" style="stroke:#181818;stroke-width:0.5;" width="103" x="820" y="927.8828"/><text fill="#000000" font-family="sans-serif" font-size="14" lengthAdjust="spacing" textLength="89" x="827" y="947.8779">CharStreams</text><rect fill="#E2E2F0" height="30.2969" rx="2.5" ry="2.5" style="stroke:#181818;stroke-width:0.5;" width="124" x="933" y="50"/><text fill="#000000" font-family="sans-serif" font-size="14" lengthAdjust="spacing" textLength="110" x="940" y="69.9951">LexerInterpreter</text><rect fill="#E2E2F0" height="30.2969" rx="2.5" ry="2.5" style="stroke:#181818;stroke-width:0.5;" width="124" x="933" y="927.8828"/><text fill="#000000" font-family="sans-serif" font-size="14" lengthAdjust="spacing" textLength="110" x="940" y="947.8779">LexerInterpreter</text><rect fill="#E2E2F0" height="30.2969" rx="2.5" ry="2.5" style="stroke:#181818;stroke-width:0.5;" width="170" x="1067" y="50"/><text fill="#000000" font-family="sans-serif" font-size="14" lengthAdjust="spacing" textLength="156" x="1074" y="69.9951">CommonTokenStream</text><rect fill="#E2E2F0" height="30.2969" rx="2.5" ry="2.5" style="stroke:#181818;stroke-width:0.5;" width="170" x="1067" y="927.8828"/><text fill="#000000" font-family="sans-serif" font-size="14" lengthAdjust="spacing" textLength="156" x="1074" y="947.8779">CommonTokenStream</text><rect fill="#E2E2F0" height="30.2969" rx="2.5" ry="2.5" style="stroke:#181818;stroke-width:0.5;" width="131" x="1247" y="50"/><text fill="#000000" font-family="sans-serif" font-size="14" lengthAdjust="spacing" textLength="117" x="1254" y="69.9951">ParserInterpreter</text><rect fill="#E2E2F0" height="30.2969" rx="2.5" ry="2.5" style="stroke:#181818;stroke-width:0.5;" width="131" x="1247" y="927.8828"/><text fill="#000000" font-family="sans-serif" font-size="14" lengthAdjust="spacing" textLength="117" x="1254" y="947.8779">ParserInterpreter</text><rect fill="#E2E2F0" height="30.2969" rx="2.5" ry="2.5" style="stroke:#181818;stroke-width:0.5;" width="164" x="1388" y="50"/><text fill="#000000" font-family="sans-serif" font-size="14" lengthAdjust="spacing" textLength="150" x="1395" y="69.9951">TokenStreamRewriter</text><rect fill="#E2E2F0" height="30.2969" rx="2.5" ry="2.5" style="stroke:#181818;stroke-width:0.5;" width="164" x="1388" y="927.8828"/><text fill="#000000" font-family="sans-serif" font-size="14" lengthAdjust="spacing" textLength="150" x="1395" y="947.8779">TokenStreamRewriter</text><rect fill="#E2E2F0" height="30.2969" rx="2.5" ry="2.5" style="stroke:#181818;stroke-width:0.5;" width="131" x="1562" y="50"/><text fill="#000000" font-family="sans-serif" font-size="14" lengthAdjust="spacing" textLength="117" x="1569" y="69.9951">ParseTreeWalker</text><rect fill="#E2E2F0" height="30.2969" rx="2.5" ry="2.5" style="stroke:#181818;stroke-width:0.5;" width="131" x="1562" y="927.8828"/><text fill="#000000" font-family="sans-serif" font-size="14" lengthAdjust="spacing" textLength="117" x="1569" y="947.8779">ParseTreeWalker</text><rect fill="#E2E2F0" height="30.2969" rx="2.5" ry="2.5" style="stroke:#181818;stroke-width:0.5;" width="136" x="1826" y="50"/><text fill="#000000" font-family="sans-serif" font-size="14" lengthAdjust="spacing" textLength="122" x="1833" y="69.9951">FormatterListener</text><rect fill="#E2E2F0" height="30.2969" rx="2.5" ry="2.5" style="stroke:#181818;stroke-width:0.5;" width="136" x="1826" y="927.8828"/><text fill="#000000" font-family="sans-serif" font-size="14" lengthAdjust="spacing" textLength="122" x="1833" y="947.8779">FormatterListener</text><rect fill="#FFFFFF" height="798.4531" style="stroke:#181818;stroke-width:1.0;" width="10" x="310" y="112.4297"/><rect fill="#FFFFFF" height="29.1328" style="stroke:#181818;stroke-width:1.0;" width="10" x="737" y="199.8281"/><rect fill="#FFFFFF" height="29.1328" style="stroke:#181818;stroke-width:1.0;" width="10" x="737" y="374.625"/><rect fill="#FFFFFF" height="29.1328" style="stroke:#181818;stroke-width:1.0;" width="10" x="737" y="462.0234"/><rect fill="#FFFFFF" height="29.1328" style="stroke:#181818;stroke-width:1.0;" width="10" x="866.5" y="141.5625"/><rect fill="#FFFFFF" height="58.2656" style="stroke:#181818;stroke-width:1.0;" width="10" x="1147" y="287.2266"/><rect fill="#FFFFFF" height="29.1328" style="stroke:#181818;stroke-width:1.0;" width="10" x="1307.5" y="520.2891"/><rect fill="#FFFFFF" height="29.1328" style="stroke:#181818;stroke-width:1.0;" width="10" x="1465" y="578.5547"/><rect fill="#FFFFFF" height="29.1328" style="stroke:#181818;stroke-width:1.0;" width="10" x="1465" y="810.4844"/><rect fill="#FFFFFF" height="86.2656" style="stroke:#181818;stroke-width:1.0;" width="10" x="1622.5" y="695.0859"/><rect fill="#FFFFFF" height="29.1328" style="stroke:#181818;stroke-width:1.0;" width="10" x="1889" y="636.8203"/><rect fill="#FFFFFF" height="43.1328" style="stroke:#181818;stroke-width:1.0;" width="10" x="1889" y="724.2188"/><polygon fill="#181818" points="298,108.4297,308,112.4297,298,116.4297,302,112.4297" style="stroke:#181818;stroke-width:1.0;"/><line style="stroke:#181818;stroke-width:1.0;" x1="106" x2="304" y1="112.4297" y2="112.4297"/><text fill="#000000" font-family="sans-serif" font-size="13" lengthAdjust="spacing" textLength="185" x="113" y="107.3638">formatCode(grammar, code)</text><polygon fill="#181818" points="854.5,137.5625,864.5,141.5625,854.5,145.5625,858.5,141.5625" style="stroke:#181818;stroke-width:1.0;"/><line style="stroke:#181818;stroke-width:1.0;" x1="320" x2="860.5" y1="141.5625" y2="141.5625"/><text fill="#000000" font-family="sans-serif" font-size="13" lengthAdjust="spacing" textLength="109" x="327" y="136.4966">fromString(code)</text><polygon fill="#181818" points="331,166.6953,321,170.6953,331,174.6953,327,170.6953" style="stroke:#181818;stroke-width:1.0;"/><line style="stroke:#181818;stroke-width:1.0;stroke-dasharray:2.0,2.0;" x1="325" x2="870.5" y1="170.6953" y2="170.6953"/><text fill="#000000" font-family="sans-serif" font-size="13" lengthAdjust="spacing" textLength="78" x="337" y="165.6294">CharStream</text><polygon fill="#181818" points="725,195.8281,735,199.8281,725,203.8281,729,199.8281" style="stroke:#181818;stroke-width:1.0;"/><line style="stroke:#181818;stroke-width:1.0;" x1="320" x2="731" y1="199.8281" y2="199.8281"/><text fill="#000000" font-family="sans-serif" font-size="13" lengthAdjust="spacing" textLength="232" x="327" y="194.7622">createLexerInterpreter(CharStream)</text><polygon fill="#181818" points="331,224.9609,321,228.9609,331,232.9609,327,228.9609" style="stroke:#181818;stroke-width:1.0;"/><line style="stroke:#181818;stroke-width:1.0;stroke-dasharray:2.0,2.0;" x1="325" x2="741" y1="228.9609" y2="228.9609"/><text fill="#000000" font-family="sans-serif" font-size="13" lengthAdjust="spacing" textLength="103" x="337" y="223.895">LexerInterpreter</text><polygon fill="#181818" points="983,254.0938,993,258.0938,983,262.0938,987,258.0938" style="stroke:#181818;stroke-width:1.0;"/><line style="stroke:#181818;stroke-width:1.0;" x1="320" x2="989" y1="258.0938" y2="258.0938"/><text fill="#000000" font-family="sans-serif" font-size="13" lengthAdjust="spacing" textLength="148" x="327" y="253.0278">removeErrorListeners()</text><polygon fill="#181818" points="1135,283.2266,1145,287.2266,1135,291.2266,1139,287.2266" style="stroke:#181818;stroke-width:1.0;"/><line style="stroke:#181818;stroke-width:1.0;" x1="320" x2="1141" y1="287.2266" y2="287.2266"/><text fill="#000000" font-family="sans-serif" font-size="13" lengthAdjust="spacing" textLength="138" x="327" y="282.1606">new(LexerInterpreter)</text><polygon fill="#181818" points="1135,312.3594,1145,316.3594,1135,320.3594,1139,316.3594" style="stroke:#181818;stroke-width:1.0;"/><line style="stroke:#181818;stroke-width:1.0;" x1="320" x2="1141" y1="316.3594" y2="316.3594"/><text fill="#000000" font-family="sans-serif" font-size="13" lengthAdjust="spacing" textLength="23" x="327" y="311.2935">fill()</text><polygon fill="#181818" points="331,341.4922,321,345.4922,331,349.4922,327,345.4922" style="stroke:#181818;stroke-width:1.0;"/><line style="stroke:#181818;stroke-width:1.0;stroke-dasharray:2.0,2.0;" x1="325" x2="1151" y1="345.4922" y2="345.4922"/><text fill="#000000" font-family="sans-serif" font-size="13" lengthAdjust="spacing" textLength="145" x="337" y="340.4263">CommonTokenStream</text><polygon fill="#181818" points="725,370.625,735,374.625,725,378.625,729,374.625" style="stroke:#181818;stroke-width:1.0;"/><line style="stroke:#181818;stroke-width:1.0;" x1="320" x2="731" y1="374.625" y2="374.625"/><text fill="#000000" font-family="sans-serif" font-size="13" lengthAdjust="spacing" textLength="305" x="327" y="369.5591">createParserInterpreter(CommonTokenStream)</text><polygon fill="#181818" points="331,399.7578,321,403.7578,331,407.7578,327,403.7578" style="stroke:#181818;stroke-width:1.0;"/><line style="stroke:#181818;stroke-width:1.0;stroke-dasharray:2.0,2.0;" x1="325" x2="741" y1="403.7578" y2="403.7578"/><text fill="#000000" font-family="sans-serif" font-size="13" lengthAdjust="spacing" textLength="109" x="337" y="398.6919">ParserInterpreter</text><polygon fill="#181818" points="1300.5,428.8906,1310.5,432.8906,1300.5,436.8906,1304.5,432.8906" style="stroke:#181818;stroke-width:1.0;"/><line style="stroke:#181818;stroke-width:1.0;" x1="320" x2="1306.5" y1="432.8906" y2="432.8906"/><text fill="#000000" font-family="sans-serif" font-size="13" lengthAdjust="spacing" textLength="148" x="327" y="427.8247">removeErrorListeners()</text><polygon fill="#181818" points="725,458.0234,735,462.0234,725,466.0234,729,462.0234" style="stroke:#181818;stroke-width:1.0;"/><line style="stroke:#181818;stroke-width:1.0;" x1="320" x2="731" y1="462.0234" y2="462.0234"/><text fill="#000000" font-family="sans-serif" font-size="13" lengthAdjust="spacing" textLength="398" x="327" y="456.9575">getParserGrammar().rules.values().iterator().next() (startRule)</text><polygon fill="#181818" points="331,487.1563,321,491.1563,331,495.1563,327,491.1563" style="stroke:#181818;stroke-width:1.0;"/><line style="stroke:#181818;stroke-width:1.0;stroke-dasharray:2.0,2.0;" x1="325" x2="741" y1="491.1563" y2="491.1563"/><text fill="#000000" font-family="sans-serif" font-size="13" lengthAdjust="spacing" textLength="27" x="337" y="486.0903">Rule</text><polygon fill="#181818" points="1295.5,516.2891,1305.5,520.2891,1295.5,524.2891,1299.5,520.2891" style="stroke:#181818;stroke-width:1.0;"/><line style="stroke:#181818;stroke-width:1.0;" x1="320" x2="1301.5" y1="520.2891" y2="520.2891"/><text fill="#000000" font-family="sans-serif" font-size="13" lengthAdjust="spacing" textLength="141" x="327" y="515.2231">parse(startRule.index)</text><polygon fill="#181818" points="331,545.4219,321,549.4219,331,553.4219,327,549.4219" style="stroke:#181818;stroke-width:1.0;"/><line style="stroke:#181818;stroke-width:1.0;stroke-dasharray:2.0,2.0;" x1="325" x2="1311.5" y1="549.4219" y2="549.4219"/><text fill="#000000" font-family="sans-serif" font-size="13" lengthAdjust="spacing" textLength="64" x="337" y="544.356">ParseTree</text><polygon fill="#181818" points="1453,574.5547,1463,578.5547,1453,582.5547,1457,578.5547" style="stroke:#181818;stroke-width:1.0;"/><line style="stroke:#181818;stroke-width:1.0;" x1="320" x2="1459" y1="578.5547" y2="578.5547"/><text fill="#000000" font-family="sans-serif" font-size="13" lengthAdjust="spacing" textLength="180" x="327" y="573.4888">new(CommonTokenStream)</text><polygon fill="#181818" points="331,603.6875,321,607.6875,331,611.6875,327,607.6875" style="stroke:#181818;stroke-width:1.0;"/><line style="stroke:#181818;stroke-width:1.0;stroke-dasharray:2.0,2.0;" x1="325" x2="1469" y1="607.6875" y2="607.6875"/><text fill="#000000" font-family="sans-serif" font-size="13" lengthAdjust="spacing" textLength="137" x="337" y="602.6216">TokenStreamRewriter</text><polygon fill="#181818" points="1877,632.8203,1887,636.8203,1877,640.8203,1881,636.8203" style="stroke:#181818;stroke-width:1.0;"/><line style="stroke:#181818;stroke-width:1.0;" x1="320" x2="1883" y1="636.8203" y2="636.8203"/><text fill="#000000" font-family="sans-serif" font-size="13" lengthAdjust="spacing" textLength="325" x="327" y="631.7544">new(TokenStreamRewriter, CommonTokenStream)</text><polygon fill="#181818" points="331,661.9531,321,665.9531,331,669.9531,327,665.9531" style="stroke:#181818;stroke-width:1.0;"/><line style="stroke:#181818;stroke-width:1.0;stroke-dasharray:2.0,2.0;" x1="325" x2="1893" y1="665.9531" y2="665.9531"/><text fill="#000000" font-family="sans-serif" font-size="13" lengthAdjust="spacing" textLength="115" x="337" y="660.8872">FormatterListener</text><polygon fill="#181818" points="1610.5,691.0859,1620.5,695.0859,1610.5,699.0859,1614.5,695.0859" style="stroke:#181818;stroke-width:1.0;"/><line style="stroke:#181818;stroke-width:1.0;" x1="320" x2="1616.5" y1="695.0859" y2="695.0859"/><text fill="#000000" font-family="sans-serif" font-size="13" lengthAdjust="spacing" textLength="224" x="327" y="690.02">walk(FormatterListener, ParseTree)</text><polygon fill="#181818" points="1877,720.2188,1887,724.2188,1877,728.2188,1881,724.2188" style="stroke:#181818;stroke-width:1.0;"/><line style="stroke:#181818;stroke-width:1.0;" x1="1632.5" x2="1883" y1="724.2188" y2="724.2188"/><text fill="#000000" font-family="sans-serif" font-size="13" lengthAdjust="spacing" textLength="179" x="1639.5" y="719.1528">visitTerminal(TerminalNode)</text><polygon fill="#181818" points="1481,749.3516,1471,753.3516,1481,757.3516,1477,753.3516" style="stroke:#181818;stroke-width:1.0;"/><line style="stroke:#181818;stroke-width:1.0;" x1="1475" x2="1888" y1="753.3516" y2="753.3516"/><text fill="#000000" font-family="sans-serif" font-size="13" lengthAdjust="spacing" textLength="395" x="1487" y="748.2856">insertBefore/insertAfter/replace/delete (modify hidden tokens)</text><polygon fill="#181818" points="1643.5,763.3516,1633.5,767.3516,1643.5,771.3516,1639.5,767.3516" style="stroke:#181818;stroke-width:1.0;"/><line style="stroke:#181818;stroke-width:1.0;stroke-dasharray:2.0,2.0;" x1="1637.5" x2="1893" y1="767.3516" y2="767.3516"/><polygon fill="#181818" points="331,777.3516,321,781.3516,331,785.3516,327,781.3516" style="stroke:#181818;stroke-width:1.0;"/><line style="stroke:#181818;stroke-width:1.0;stroke-dasharray:2.0,2.0;" x1="325" x2="1626.5" y1="781.3516" y2="781.3516"/><polygon fill="#181818" points="1453,806.4844,1463,810.4844,1453,814.4844,1457,810.4844" style="stroke:#181818;stroke-width:1.0;"/><line style="stroke:#181818;stroke-width:1.0;" x1="320" x2="1459" y1="810.4844" y2="810.4844"/><text fill="#000000" font-family="sans-serif" font-size="13" lengthAdjust="spacing" textLength="58" x="327" y="805.4185">getText()</text><polygon fill="#181818" points="331,835.6172,321,839.6172,331,843.6172,327,839.6172" style="stroke:#181818;stroke-width:1.0;"/><line style="stroke:#181818;stroke-width:1.0;stroke-dasharray:2.0,2.0;" x1="325" x2="1469" y1="839.6172" y2="839.6172"/><text fill="#000000" font-family="sans-serif" font-size="13" lengthAdjust="spacing" textLength="91" x="337" y="834.5513">formattedText</text><line style="stroke:#181818;stroke-width:1.0;" x1="320" x2="362" y1="868.75" y2="868.75"/><line style="stroke:#181818;stroke-width:1.0;" x1="362" x2="362" y1="868.75" y2="881.75"/><line style="stroke:#181818;stroke-width:1.0;" x1="321" x2="362" y1="881.75" y2="881.75"/><polygon fill="#181818" points="331,877.75,321,881.75,331,885.75,327,881.75" style="stroke:#181818;stroke-width:1.0;"/><text fill="#000000" font-family="sans-serif" font-size="13" lengthAdjust="spacing" textLength="313" x="327" y="863.6841">fallback regex cleanup (remove extra blank lines)</text><polygon fill="#181818" points="117,906.8828,107,910.8828,117,914.8828,113,910.8828" style="stroke:#181818;stroke-width:1.0;"/><line style="stroke:#181818;stroke-width:1.0;stroke-dasharray:2.0,2.0;" x1="111" x2="314" y1="910.8828" y2="910.8828"/><text fill="#000000" font-family="sans-serif" font-size="13" lengthAdjust="spacing" textLength="97" x="123" y="905.8169">formattedCode</text><!--SRC=[ZLN9Rjim4BthAuYSA22LxpuKQEFOA90MHMoqPqOQEuGfIXZHI_w-Gv6KgCLEB-RsvitepMAHcmhPmvDG2f1no0uPUouaNVwHSFbP5Q3I1oOQvX19BT38NDP26xAYvtM5fJ16wiCMy2npSEZrTWXTVMXHodo3eYm5jfZLPiJsBd1h44JPE8uHnGjS0Nze0rWZq6yBQY_7KPLbfNVL4RIZQu7HUGZ_BR2PyhhR8JAYU8KBoe0DXndU7GBy5UheaMuxn7a10LzaOq27x_A79F6f-VBLYhfa-nPkbUS79-OZo-cK9Y8tyYmCjE8dzDFQM1EiIWgRKiJ7o6toHB30tMSWAI061RRLPiboUZSmJWRlRID-Il5gq_EFZM8l10rUMjYI8PJL6PuHgqwQXgSTAih6accuy35x54US_3dplLIAgAExI9HnESLHnzTJaIQbnITajyMQ6DzGo-4-bSj6TG3ZqBuDUPhXIK6JdOKw0Q4pMyQ2cf-s6gw6fumtXghrbM2tGxMldqHNsxNdogGku1en-dvpoqW4sqGnlSS65w7zN1NSKxXhrB3f7StqTkook-jgr4lidCvOFx9xaNJj7JPz99Dv4CSHZGKNXvieItQXbKzC7ti18-T-2hbb-35dsKYp0oob5eg7pQ_Xr9W9Fiw2r9GTynreKi727RxjwMM1K2kHmuB-KwYU6I-hGku_sBii2j3CMA6QTAY83tLEWH2-qos6UADfVL3zxzgg_g-Is7ir2sjpjnWSdERqcyYFr8W7kB9SWT2dcd7NbumuKB0t9VIHAQc1lhIrjkRjX8ySska-cC3hxJy0]--></g></svg>